<svg height="512pt" viewBox="0 0 512 512" width="512pt" xmlns="http://www.w3.org/2000/svg"><path d="m512 256c0 141.386719-114.613281 256-256 256s-256-114.613281-256-256 114.613281-256 256-256 256 114.613281 256 256zm0 0" fill="#4a7aff"/><path d="m267.234375 511.738281c136.171875-5.878906 244.765625-118.121093 244.765625-255.738281 0-.996094-.027344-1.988281-.039062-2.984375l-177.699219-177.703125-190 198.59375 105.566406 105.566406-48.675781 66.183594zm0 0" fill="#0053bf"/><path d="m334.261719 75.3125v57.96875s-66.554688-9.660156-66.554688 33.277344v42.9375h60.113281l-7.511718 65.480468h-52.601563v170.679688h-66.554687v-170.679688l-56.894532-1.074218v-64.40625h55.820313v-49.378906s-3.683594-73.457032 68.703125-86.949219c30.058594-5.605469 65.480469 2.144531 65.480469 2.144531zm0 0" fill="#fff"/><path d="m334.261719 133.28125v-57.96875s-35.421875-7.75-65.480469-2.144531c-4.695312.875-9.0625 2.007812-13.136719 3.347656v369.140625h12.0625v-170.679688h52.597657l7.515624-65.480468h-60.113281s0 0 0-42.9375 66.554688-33.277344 66.554688-33.277344zm0 0" fill="#dce1eb"/></svg>